<svg xmlns="http://www.w3.org/2000/svg" xmlns:android="http://schemas.android.com/apk/res/android" width="800dp" height="800dp" viewportWidth="48" viewportHeight="48">
	<path d="M32,15v28H10c-2.2,0 -4,-1.8 -4,-4V15H32z" fill="#FBC02D"/>
	<path d="M14,5v34c0,2.2 -1.8,4 -4,4h29c2.2,0 4,-1.8 4,-4V5H14z" fill="#668E2F"/>
	<path d="M20,10h18v4h-18z" fill="#FBC02D"/>
	<path d="M20,17h8v2h-8z" fill="#FBC02D"/>
	<path d="M30,17h8v2h-8z" fill="#FBC02D"/>
	<path d="M20,21h8v2h-8z" fill="#FBC02D"/>
	<path d="M30,21h8v2h-8z" fill="#FBC02D"/>
	<path d="M20,25h8v2h-8z" fill="#FBC02D"/>
	<path d="M30,25h8v2h-8z" fill="#FBC02D"/>
	<path d="M20,29h8v2h-8z" fill="#FBC02D"/>
	<path d="M30,29h8v2h-8z" fill="#FBC02D"/>
	<path d="M20,33h8v2h-8z" fill="#FBC02D"/>
	<path d="M30,33h8v2h-8z" fill="#FBC02D"/>
	<path d="M20,37h8v2h-8z" fill="#FBC02D"/>
	<path d="M30,37h8v2h-8z" fill="#FBC02D"/>
</svg>
