<svg xmlns="http://www.w3.org/2000/svg" version="1.1" viewBox="1.657454490661621 2.5799999237060547 503.89898681640625 529.9099731445312" width="508.00" height="535.00">
<path fill="#306023" d="&#10;  M 504.72 532.49&#10;  L 3.08 532.49&#10;  A 0.63 0.63 0.0 0 1 2.45 531.87&#10;  Q 1.84 490.26 1.80 456.50&#10;  Q 1.52 224.18 1.79 143.52&#10;  Q 1.92 106.33 2.23 66.55&#10;  Q 2.39 46.30 2.34 3.34&#10;  A 0.77 0.76 -0.0 0 1 3.11 2.58&#10;  L 504.59 2.58&#10;  Q 505.16 2.58 505.26 3.14&#10;  Q 505.46 4.39 505.47 7.52&#10;  Q 505.58 180.71 505.55 531.67&#10;  A 0.83 0.82 -0.0 0 1 504.72 532.49&#10;  Z&#10;  M 104.23 104.59&#10;  C 111.57 111.21 119.18 112.42 128.81 111.77&#10;  C 137.92 111.16 144.69 105.94 149.92 98.94&#10;  Q 151.64 96.64 152.28 94.30&#10;  Q 154.18 87.29 153.91 79.61&#10;  C 153.74 74.71 152.08 70.82 148.91 67.20&#10;  C 146.78 64.77 142.70 62.75 140.19 60.81&#10;  Q 138.25 59.30 133.17 57.88&#10;  Q 119.82 54.17 109.56 60.56&#10;  Q 102.63 64.88 99.68 68.43&#10;  Q 97.24 71.36 96.67 74.47&#10;  Q 94.99 83.59 96.99 94.16&#10;  C 97.92 99.06 100.31 101.06 104.23 104.59&#10;  Z&#10;  M 374.23 351.39&#10;  Q 375.30 359.19 379.04 367.26&#10;  Q 380.57 370.56 383.07 373.35&#10;  Q 385.17 375.69 387.66 379.23&#10;  Q 388.76 380.80 392.61 382.78&#10;  Q 402.16 387.70 411.61 388.69&#10;  C 414.01 388.94 417.09 388.80 419.32 388.85&#10;  Q 422.55 388.92 425.14 388.66&#10;  Q 436.99 387.46 443.17 386.41&#10;  C 448.46 385.51 454.35 382.09 455.43 376.28&#10;  A 2.67 2.66 -70.6 0 0 454.08 373.45&#10;  Q 449.71 371.08 444.52 371.43&#10;  Q 438.11 371.86 434.54 371.94&#10;  Q 429.95 372.05 428.35 369.65&#10;  Q 423.60 362.56 421.89 360.86&#10;  Q 417.15 356.19 413.29 351.43&#10;  A 3.93 3.89 -64.6 0 1 412.43 348.98&#10;  L 412.43 157.76&#10;  Q 412.43 156.66 411.33 156.66&#10;  C 398.05 156.60 379.49 156.37 364.51 156.82&#10;  Q 347.62 157.32 332.78 157.30&#10;  A 0.79 0.78 -89.6 0 0 331.99 158.09&#10;  L 331.99 165.37&#10;  A 2.38 2.38 0.0 0 0 334.01 167.72&#10;  Q 340.82 168.76 348.43 170.26&#10;  Q 357.00 171.95 360.94 174.80&#10;  Q 366.59 178.91 368.95 185.46&#10;  Q 370.32 189.24 370.30 196.79&#10;  Q 370.13 269.03 370.29 331.55&#10;  Q 370.30 333.67 369.63 335.33&#10;  Q 368.79 337.40 367.82 338.82&#10;  Q 361.02 348.79 359.67 350.98&#10;  Q 357.33 354.79 354.43 357.25&#10;  Q 347.27 363.31 340.57 367.54&#10;  Q 336.02 370.42 331.58 371.79&#10;  Q 324.39 374.01 314.43 375.63&#10;  Q 310.98 376.20 307.08 375.65&#10;  Q 300.42 374.70 291.77 373.21&#10;  Q 283.93 371.87 277.87 365.37&#10;  Q 265.71 352.35 265.73 334.01&#10;  Q 265.82 253.74 265.61 157.74&#10;  A 1.15 1.15 0.0 0 0 264.46 156.59&#10;  Q 226.07 156.58 196.50 156.66&#10;  Q 190.45 156.68 184.75 157.67&#10;  A 2.39 2.37 0.9 0 0 182.83 159.52&#10;  C 182.04 163.38 185.48 166.49 188.83 168.21&#10;  Q 190.58 169.11 195.64 169.57&#10;  Q 199.75 169.94 207.26 171.54&#10;  Q 213.18 172.80 215.28 174.63&#10;  Q 220.11 178.85 222.20 184.78&#10;  Q 223.43 188.24 223.42 196.77&#10;  Q 223.34 283.06 223.56 323.56&#10;  C 223.58 327.62 223.23 332.84 224.37 336.38&#10;  Q 226.83 343.99 227.93 350.54&#10;  C 228.93 356.55 231.92 360.37 235.71 366.92&#10;  C 239.65 373.72 245.16 378.23 252.25 382.46&#10;  Q 253.90 383.44 256.72 384.48&#10;  C 259.98 385.68 262.84 388.48 266.35 389.68&#10;  Q 274.97 392.65 284.04 393.42&#10;  Q 301.03 394.86 318.68 392.83&#10;  C 323.45 392.28 327.83 391.00 331.76 389.00&#10;  Q 339.90 384.83 345.57 382.49&#10;  Q 347.55 381.67 348.01 381.25&#10;  Q 349.39 379.99 355.10 374.84&#10;  Q 359.09 371.25 361.64 367.94&#10;  C 365.26 363.24 370.53 357.57 373.43 351.27&#10;  Q 374.04 349.94 374.23 351.39&#10;  Z&#10;  M 67.77 382.82&#10;  A 0.88 0.87 -90.0 0 0 68.64 383.70&#10;  L 185.23 383.70&#10;  A 0.64 0.64 0.0 0 0 185.87 383.06&#10;  L 185.87 373.29&#10;  A 1.25 1.25 0.0 0 0 184.56 372.04&#10;  C 178.34 372.35 173.54 372.01 167.60 370.09&#10;  Q 164.50 369.09 161.40 368.08&#10;  C 159.52 367.47 157.16 366.29 156.15 364.90&#10;  Q 152.74 360.27 150.52 354.20&#10;  Q 149.30 350.89 149.31 342.62&#10;  Q 149.41 261.57 149.25 158.27&#10;  Q 149.25 157.32 148.30 157.32&#10;  L 67.96 157.32&#10;  A 0.70 0.70 0.0 0 0 67.26 158.02&#10;  L 67.26 166.21&#10;  A 1.52 1.51 3.7 0 0 68.59 167.71&#10;  Q 76.86 168.78 85.70 170.71&#10;  C 93.94 172.51 98.95 173.31 102.91 179.77&#10;  Q 107.00 186.43 107.33 191.21&#10;  Q 107.57 194.52 107.54 201.25&#10;  Q 107.42 229.51 107.48 343.99&#10;  Q 107.48 349.99 106.73 352.40&#10;  Q 105.40 356.68 102.44 359.87&#10;  C 96.20 366.60 91.77 371.42 82.75 371.95&#10;  Q 77.71 372.25 68.87 372.15&#10;  A 1.09 1.08 -89.5 0 0 67.77 373.24&#10;  L 67.77 382.82&#10;  Z"/>
</svg>