<svg width="109.6625px" height="154.4px" xmlns="http://www.w3.org/2000/svg" viewBox="195.16875 -2.200000000000003 109.6625 154.4" style="background: rgb(52, 107, 33);" preserveAspectRatio="xMidYMid"><defs><linearGradient id="editing-gradient-gradient" x1="0" x2="1" y1="0.5" y2="0.5" gradientUnits="objectBoundingBox"><stop offset="0" stop-color="#f0f1f2"></stop><stop offset="1" stop-color="#f0f1f2"></stop></linearGradient></defs><g><g transform="translate(217.02001190185547, 105.41500282287598)"><path d="M16.45-49.34L16.45-49.34L16.45-49.34Q15.66-48.06 14.54-47.20L14.54-47.20L14.54-47.20Q13.42-46.33 12.00-46.33L12.00-46.33L12.00-46.33Q10.57-46.33 9.45-47.20L9.45-47.20L9.45-47.20Q8.33-48.06 7.56-49.34L7.56-49.34L7.56-49.34Q5.98-51.96 5.98-54.89L5.98-54.89L5.98-54.89Q5.98-58.44 9.22-59.64L9.22-59.64L9.22-59.64Q10.38-60.06 12.04-60.06L12.04-60.06L12.04-60.06Q16.63-60.06 17.74-56.82L17.74-56.82L17.74-56.82Q18.09-55.89 18.09-54.76L18.09-54.76L18.09-54.76Q18.09-53.62 17.67-52.11L17.67-52.11L17.67-52.11Q17.24-50.61 16.45-49.34ZM17.36 0L5.98 0L5.98 0Q7.75-6.09 7.75-20.95L7.75-20.95L7.75-20.95Q7.75-31.40 5.90-35.33L5.90-35.33L5.90-35.33Q5.44-36.34 4.86-37.19L4.86-37.19L3.59-38.96L17.28-38.96L17.28-38.96Q15.58-32.60 15.58-19.34L15.58-19.34L15.58-19.34Q15.58-6.09 17.36 0L17.36 0ZM58.79-37.19L58.79-35.33L58.21-18.09L58.21-18.09Q58.21-7.56 60.06-3.63L60.06-3.63L60.06-3.63Q60.72-2.20 62.37 0L62.37 0L51.65 0L51.65 0Q50.76-2.62 50.49-6.63L50.49-6.63L50.49-6.63Q46.02 0.77 38.96 0.77L38.96 0.77L38.96 0.77Q34.10 0.77 31.52-2.85L31.52-2.85L31.52-2.85Q28.97-6.36 28.97-12.50L28.97-12.50L28.97-17.71L28.97-17.71Q28.97-19.44 28.97-21.25L28.97-21.25L28.89-24.76L28.89-24.76Q28.85-28.12 28.68-29.99L28.68-29.99L28.68-29.99Q28.51-31.86 28.29-33.12L28.29-33.12L28.29-33.12Q28.08-34.37 27.77-35.35L27.77-35.35L27.77-35.35Q27.46-36.34 27.08-37.19L27.08-37.19L26.23-38.96L37.38-38.96L37.38-38.96Q37.42-38.34 37.42-37.80L37.42-37.80L37.42-36.68L37.42-36.68Q37.42-36.68 36.76-17.32L36.76-17.32L36.76-17.32Q36.76-11.65 37.49-9.60L37.49-9.60L37.49-9.60Q38.23-7.56 39.25-6.67L39.25-6.67L39.25-6.67Q40.27-5.79 41.97-5.79L41.97-5.79L41.97-5.79Q46.56-5.79 49.41-10.80L49.41-10.80L49.41-10.80Q50.19-12.23 50.69-13.69L50.69-13.69L50.69-13.69Q50.76-15.85 50.76-18.59L50.76-18.59L50.76-18.59Q50.76-32.67 48.68-37.19L48.68-37.19L47.83-38.96L58.83-38.96L58.83-38.96Q58.79-38.00 58.79-37.19L58.79-37.19Z" fill="url(#editing-gradient-gradient)"></path></g></g><style>text {
  font-size: 64px;
  font-family: Arial Black;
  dominant-baseline: central;
  text-anchor: middle;
}</style></svg>